<svg xmlns="http://www.w3.org/2000/svg" version="1.1" xmlns:xlink="http://www.w3.org/1999/xlink" xmlns:svgjs="http://svgjs.dev/svgjs" width="2000" height="1101" viewBox="0 0 2000 1101"><g transform="matrix(1,0,0,1,-1.2121212121212466,0.48319008530506835)"><svg viewBox="0 0 396 218" data-background-color="#000000" preserveAspectRatio="xMidYMid meet" height="1101" width="2000" xmlns="http://www.w3.org/2000/svg" xmlns:xlink="http://www.w3.org/1999/xlink"><g id="tight-bounds" transform="matrix(1,0,0,1,0.2400000000000091,-0.09567251461989201)"><svg viewBox="0 0 395.52 218.19134502923978" height="218.19134502923978" width="395.52"><g><svg viewBox="0 0 395.52 218.19134502923978" height="218.19134502923978" width="395.52"><g><svg viewBox="0 0 395.52 218.19134502923978" height="218.19134502923978" width="395.52"><g id="textblocktransform"><svg viewBox="0 0 395.52 218.19134502923978" height="218.19134502923978" width="395.52" id="textblock"><g><svg viewBox="0 0 395.52 218.19134502923978" height="218.19134502923978" width="395.52"><g transform="matrix(1,0,0,1,0,0)"><svg width="395.52" viewBox="1.5 -36.5 76.95 42.45" height="218.19134502923978" data-palette-color="#ffffff"><path d="M14.25-15.15L14.25-15.15 14.25-13.6 33.75-13.6 33.75-15.15Q33.75-16.5 33.52-17.65 33.3-18.8 32.95-19.8L32.95-19.8 29.5-27.95Q28.95-29.25 28.35-30.13 27.75-31 26.35-31L26.35-31 21.45-31Q19.95-31 19.35-30.13 18.75-29.25 18.25-28L18.25-28 15.05-19.8Q14.7-18.8 14.48-17.65 14.25-16.5 14.25-15.15ZM19.9-17.9L22.25-25.5Q22.45-25.95 22.68-26.15 22.9-26.35 23.2-26.35L23.2-26.35 24.45-26.35Q24.75-26.35 24.98-26.15 25.2-25.95 25.4-25.5L25.4-25.5 27.75-17.9 19.9-17.9ZM34.25-4.5L33.75-4.5 33.75-13.1 14.25-13.1 14.25-4.5 13.75-4.5 13.75-15.15Q13.75-16.55 13.98-17.73 14.2-18.9 14.6-20L14.6-20 17.8-28.2Q18.35-29.6 19.05-30.55 19.75-31.5 21.45-31.5L21.45-31.5 26.35-31.5Q28-31.5 28.68-30.55 29.35-29.6 29.95-28.15L29.95-28.15 33.4-20Q33.8-18.9 34.02-17.73 34.25-16.55 34.25-15.15L34.25-15.15 34.25-4.5ZM19.4-1.8L19.4-1.8 19.4-8.8 28.25-8.8 28.25-1.8Q28.25-0.85 28.73-0.43 29.2 0 30.2 0L30.2 0 37.75 0Q38.7 0 39.13-0.43 39.55-0.85 39.55-1.8L39.55-1.8 39.55-15Q39.55-16.5 39.08-18.45 38.6-20.4 37.6-23L37.6-23 33.25-34.35Q32.95-35.2 32.33-35.6 31.7-36 30.75-36L30.75-36 17.3-36Q16.3-36 15.68-35.6 15.05-35.2 14.75-34.35L14.75-34.35 10.4-23Q9.4-20.4 8.93-18.45 8.45-16.5 8.45-15L8.45-15 8.45-1.8Q8.45-0.85 8.88-0.43 9.3 0 10.25 0L10.25 0 17.6 0Q18.55 0 18.98-0.43 19.4-0.85 19.4-1.8ZM19.2 0.05L12.7 5.45Q12.5 5.65 12.08 5.8 11.65 5.95 11.15 5.95L11.15 5.95 3.8 5.95Q2.6 5.95 2.05 5.4 1.5 4.85 1.5 3.65L1.5 3.65 1.5-9.55Q1.5-11.1 1.98-13.08 2.45-15.05 3.5-17.75L3.5-17.75 7.8-29.05Q7.95-29.5 8.18-29.83 8.4-30.15 8.65-30.4L8.65-30.4 8.7-30.45 15.1-35.8Q15.5-36.15 16.05-36.33 16.6-36.5 17.3-36.5L17.3-36.5 30.75-36.5Q31.9-36.5 32.63-36.02 33.35-35.55 33.7-34.55L33.7-34.55 38.05-23.2Q39.1-20.5 39.58-18.53 40.05-16.55 40.05-15L40.05-15 40.05-1.8Q40.05-1.15 39.88-0.7 39.7-0.25 39.35 0.05L39.35 0.05 32.85 5.45Q32.65 5.65 32.23 5.8 31.8 5.95 31.3 5.95L31.3 5.95 23.75 5.95Q22.5 5.95 21.9 5.38 21.3 4.8 21.3 3.65L21.3 3.65 21.3-2.85 19.9-2.85 19.9-1.8Q19.9-1.15 19.73-0.7 19.55-0.25 19.2 0.05L19.2 0.05ZM69.7 5.95L69.7 5.95 44.9 5.95Q43.7 5.95 43.15 5.4 42.6 4.85 42.6 3.65L42.6 3.65 42.6-3.05Q42.6-4.15 42.92-4.93 43.25-5.7 43.95-6.45L43.95-6.45 55.45-20.4 45.8-20.4Q44.6-20.4 44.05-20.95 43.5-21.5 43.5-22.7L43.5-22.7 43.5-28.75Q43.5-29.4 43.67-29.85 43.85-30.3 44.2-30.6L44.2-30.6 50.65-36.05Q50.9-36.25 51.32-36.38 51.75-36.5 52.25-36.5L52.25-36.5 75.25-36.5Q76.45-36.5 77-35.95 77.55-35.4 77.55-34.2L77.55-34.2 77.55-26.75Q77.55-25.65 77.22-24.85 76.9-24.05 76.2-23.3L76.2-23.3 65.25-10.05 76.15-10.05Q77.35-10.05 77.9-9.5 78.45-8.95 78.45-7.75L78.45-7.75 78.45-1.8Q78.45-1.15 78.27-0.7 78.1-0.25 77.75 0.05L77.75 0.05 71.25 5.45Q71.05 5.65 70.62 5.8 70.2 5.95 69.7 5.95ZM51.35 0L76.15 0Q77.1 0 77.52-0.43 77.95-0.85 77.95-1.8L77.95-1.8 77.95-7.75Q77.95-8.7 77.52-9.13 77.1-9.55 76.15-9.55L76.15-9.55 64.2-9.55 75.8-23.6Q76.45-24.3 76.75-25.03 77.05-25.75 77.05-26.75L77.05-26.75 77.05-34.2Q77.05-35.15 76.62-35.58 76.2-36 75.25-36L75.25-36 52.25-36Q51.3-36 50.87-35.58 50.45-35.15 50.45-34.2L50.45-34.2 50.45-28.15Q50.45-27.2 50.87-26.78 51.3-26.35 52.25-26.35L52.25-26.35 62.95-26.35 50.8-11.6Q50.15-10.9 49.85-10.18 49.55-9.45 49.55-8.5L49.55-8.5 49.55-1.8Q49.55-0.85 49.97-0.43 50.4 0 51.35 0L51.35 0ZM70.9-27.2L70.9-27.2 56.25-8.4Q55.9-7.95 55.72-7.65 55.55-7.35 55.55-6.85L55.55-6.85 55.55-6.15Q55.55-5.45 55.87-5.23 56.2-5 56.6-5L56.6-5 73.45-5 73.45-4.5 56.6-4.5Q55.8-4.5 55.42-4.9 55.05-5.3 55.05-6.15L55.05-6.15 55.05-6.95Q55.05-7.5 55.3-7.93 55.55-8.35 55.9-8.8L55.9-8.8 70.55-27.6Q70.9-28.05 71.07-28.35 71.25-28.65 71.25-29.15L71.25-29.15 71.25-29.85Q71.25-30.55 70.92-30.78 70.6-31 70.2-31L70.2-31 54.95-31 54.95-31.5 70.2-31.5Q71-31.5 71.37-31.1 71.75-30.7 71.75-29.85L71.75-29.85 71.75-29.05Q71.75-28.5 71.5-28.08 71.25-27.65 70.9-27.2Z" opacity="1" transform="matrix(1,0,0,1,0,0)" fill="#ffffff" class="wordmark-text-0" data-fill-palette-color="primary" id="text-0"></path></svg></g></svg></g></svg></g></svg></g><g></g></svg></g><defs></defs></svg><rect width="395.52" height="218.19134502923978" fill="none" stroke="none" visibility="hidden"></rect></g></svg></g></svg>